ffmpeg version 3.4.6-0ubuntu0.18.04.1 Copyright (c) 2000-2019 the FFmpeg developers
  built with gcc 7 (Ubuntu 7.3.0-16ubuntu3)
  configuration: --prefix=/usr --extra-version=0ubuntu0.18.04.1 --toolchain=hardened --libdir=/usr/lib/x86_64-linux-gnu --incdir=/usr/include/x86_64-linux-gnu --enable-gpl --disable-stripping --enable-avresample --enable-avisynth --enable-gnutls --enable-ladspa --enable-libass --enable-libbluray --enable-libbs2b --enable-libcaca --enable-libcdio --enable-libflite --enable-libfontconfig --enable-libfreetype --enable-libfribidi --enable-libgme --enable-libgsm --enable-libmp3lame --enable-libmysofa --enable-libopenjpeg --enable-libopenmpt --enable-libopus --enable-libpulse --enable-librubberband --enable-librsvg --enable-libshine --enable-libsnappy --enable-libsoxr --enable-libspeex --enable-libssh --enable-libtheora --enable-libtwolame --enable-libvorbis --enable-libvpx --enable-libwavpack --enable-libwebp --enable-libx265 --enable-libxml2 --enable-libxvid --enable-libzmq --enable-libzvbi --enable-omx --enable-openal --enable-opengl --enable-sdl2 --enable-libdc1394 --enable-libdrm --enable-libiec61883 --enable-chromaprint --enable-frei0r --enable-libopencv --enable-libx264 --enable-shared
  libavutil      55. 78.100 / 55. 78.100
  libavcodec     57.107.100 / 57.107.100
  libavformat    57. 83.100 / 57. 83.100
  libavdevice    57. 10.100 / 57. 10.100
  libavfilter     6.107.100 /  6.107.100
  libavresample   3.  7.  0 /  3.  7.  0
  libswscale      4.  8.100 /  4.  8.100
  libswresample   2.  9.100 /  2.  9.100
  libpostproc    54.  7.100 / 54.  7.100
Input #0, image2pipe, from 'pipe:':
  Duration: N/A, bitrate: N/A
    Stream #0:0: Video: ppm, rgb24, 320x240, 20 fps, 20 tbr, 20 tbn, 20 tbc
Stream mapping:
  Stream #0:0 -> #0:0 (ppm (native) -> h264 (libx264))
[libx264 @ 0x5578350adf40] using cpu capabilities: MMX2 SSE2Fast SSSE3 SSE4.2 AVX FMA3 BMI2 AVX2
[libx264 @ 0x5578350adf40] profile High, level 1.3
[libx264 @ 0x5578350adf40] 264 - core 152 r2854 e9a5903 - H.264/MPEG-4 AVC codec - Copyleft 2003-2017 - http://www.videolan.org/x264.html - options: cabac=1 ref=3 deblock=1:0:0 analyse=0x3:0x113 me=hex subme=7 psy=1 psy_rd=1.00:0.00 mixed_ref=1 me_range=16 chroma_me=1 trellis=1 8x8dct=1 cqm=0 deadzone=21,11 fast_pskip=1 chroma_qp_offset=-2 threads=1 lookahead_threads=1 sliced_threads=0 nr=0 decimate=1 interlaced=0 bluray_compat=0 constrained_intra=0 bframes=3 b_pyramid=2 b_adapt=1 b_bias=0 direct=1 weightb=1 open_gop=0 weightp=2 keyint=250 keyint_min=20 scenecut=40 intra_refresh=0 rc_lookahead=40 rc=abr mbtree=1 bitrate=400 ratetol=1.0 qcomp=0.60 qpmin=0 qpmax=69 qpstep=4 ip_ratio=1.40 aq=1:1.00
Output #0, mp4, to './mission_records/e13d0961-894d-49c0-8445-3060adad5c87/video.mp4':
  Metadata:
    encoder         : Lavf57.83.100
    Stream #0:0: Video: h264 (libx264) (avc1 / 0x31637661), yuv420p, 320x240, q=-1--1, 400 kb/s, 20 fps, 10240 tbn, 20 tbc
    Metadata:
      encoder         : Lavc57.107.100 libx264
    Side data:
      cpb: bitrate max/min/avg: 0/0/400000 buffer size: 0 vbv_delay: -1
frame=   30 fps=0.0 q=0.0 size=       0kB time=00:00:00.00 bitrate=N/A speed=   0x    frame=   38 fps= 37 q=0.0 size=       0kB time=00:00:00.00 bitrate=N/A speed=   0x    frame=   45 fps= 29 q=28.0 size=       0kB time=00:00:00.05 bitrate=   7.7kbits/s speed=0.0324x    frame=   53 fps= 25 q=25.0 size=       0kB time=00:00:00.45 bitrate=   0.9kbits/s speed=0.216x    frame=   61 fps= 23 q=27.0 size=       0kB time=00:00:00.85 bitrate=   0.5kbits/s speed=0.323x    Error while decoding stream #0:0: Invalid data found when processing input
frame=   63 fps= 16 q=28.0 Lsize=     164kB time=00:00:03.00 bitrate= 447.8kbits/s speed=0.782x    
video:163kB audio:0kB subtitle:0kB other streams:0kB global headers:0kB muxing overhead: 0.737826%
[libx264 @ 0x5578350adf40] frame I:5     Avg QP:19.54  size:  4334
[libx264 @ 0x5578350adf40] frame P:49    Avg QP:22.02  size:  2572
[libx264 @ 0x5578350adf40] frame B:9     Avg QP:23.26  size:  2034
[libx264 @ 0x5578350adf40] consecutive B-frames: 77.8%  6.3%  9.5%  6.3%
[libx264 @ 0x5578350adf40] mb I  I16..4: 31.7% 61.5%  6.8%
[libx264 @ 0x5578350adf40] mb P  I16..4: 23.3% 31.9%  4.8%  P16..4: 20.2%  5.6%  4.4%  0.0%  0.0%    skip: 9.6%
[libx264 @ 0x5578350adf40] mb B  I16..4: 12.1% 15.5%  0.4%  B16..8: 25.7%  5.0%  1.4%  direct:17.3%  skip:22.6%  L0:60.1% L1:36.6% BI: 3.4%
[libx264 @ 0x5578350adf40] final ratefactor: 22.49
[libx264 @ 0x5578350adf40] 8x8 transform intra:54.5% inter:71.2%
[libx264 @ 0x5578350adf40] coded y,uvDC,uvAC intra: 42.0% 28.4% 3.7% inter: 19.5% 28.6% 0.1%
[libx264 @ 0x5578350adf40] i16 v,h,dc,p: 13% 55% 10% 22%
[libx264 @ 0x5578350adf40] i8 v,h,dc,ddl,ddr,vr,hd,vl,hu:  6% 26% 41%  4%  5%  3%  7%  3%  7%
[libx264 @ 0x5578350adf40] i4 v,h,dc,ddl,ddr,vr,hd,vl,hu:  9% 37% 22%  5%  6%  3%  8%  3%  7%
[libx264 @ 0x5578350adf40] i8c dc,h,v,p: 55% 37%  1%  7%
[libx264 @ 0x5578350adf40] Weighted P-Frames: Y:28.6% UV:20.4%
[libx264 @ 0x5578350adf40] ref P L0: 66.9%  4.3% 18.0%  8.8%  1.9%
[libx264 @ 0x5578350adf40] ref B L0: 87.1% 11.8%  1.1%
[libx264 @ 0x5578350adf40] ref B L1: 99.0%  1.0%
[libx264 @ 0x5578350adf40] kb/s:421.59
